<?xml version="1.0" encoding="UTF-8" standalone="no"?>
<svg
   xmlns:dc="http://purl.org/dc/elements/1.1/"
   xmlns:cc="http://creativecommons.org/ns#"
   xmlns:rdf="http://www.w3.org/1999/02/22-rdf-syntax-ns#"
   xmlns:svg="http://www.w3.org/2000/svg"
   xmlns="http://www.w3.org/2000/svg"
   xmlns:sodipodi="http://sodipodi.sourceforge.net/DTD/sodipodi-0.dtd"
   xmlns:inkscape="http://www.inkscape.org/namespaces/inkscape"
   width="210mm"
   height="210mm"
   viewBox="0 0 210 210"
   version="1.1"
   id="svg895"
   inkscape:version="1.0.1 (3bc2e813f5, 2020-09-07)"
   sodipodi:docname="erouska1.svg">
  <defs
     id="defs889">
    <clipPath
       id="clip-path">
      <path
         id="Path_3"
         data-name="Path 3"
         d="m 1035.618,1628.237 v 28.717 a 17.429,17.429 0 0 1 -17.429,17.429 h -28.717 a 17.429,17.429 0 0 1 -17.429,-17.429 v -28.717 a 17.429,17.429 0 0 1 17.429,-17.429 h 28.718 a 17.429,17.429 0 0 1 17.428,17.429 z"
         transform="translate(-972.043,-1610.808)"
         fill="none" />
    </clipPath>
  </defs>
  <sodipodi:namedview
     id="base"
     pagecolor="#ffffff"
     bordercolor="#666666"
     borderopacity="1.0"
     inkscape:pageopacity="0.0"
     inkscape:pageshadow="2"
     inkscape:zoom="0.35"
     inkscape:cx="400"
     inkscape:cy="560"
     inkscape:document-units="mm"
     inkscape:current-layer="layer1"
     inkscape:document-rotation="0"
     showgrid="false"
     inkscape:window-width="1920"
     inkscape:window-height="1017"
     inkscape:window-x="-8"
     inkscape:window-y="-8"
     inkscape:window-maximized="1" />
  <metadata
     id="metadata892">
    <rdf:RDF>
      <cc:Work
         rdf:about="">
        <dc:format>image/svg+xml</dc:format>
        <dc:type
           rdf:resource="http://purl.org/dc/dcmitype/StillImage" />
        <dc:title></dc:title>
      </cc:Work>
    </rdf:RDF>
  </metadata>
  <g
     inkscape:label="Vrstva 1"
     inkscape:groupmode="layer"
     id="layer1">
    <g
       id="Group_3"
       data-name="Group 3"
       transform="matrix(3.3002207,0,0,3.3002207,-0.14802309,0.60476142)">
      <g
         id="Layer_2"
         data-name="Layer 2">
        <path
           id="Path_1"
           data-name="Path 1"
           d="m 1035.618,1628.237 v 28.717 a 17.429,17.429 0 0 1 -17.429,17.429 h -28.717 a 17.429,17.429 0 0 1 -17.429,-17.429 v -28.717 a 17.429,17.429 0 0 1 17.429,-17.429 h 28.718 a 17.429,17.429 0 0 1 17.428,17.429 z"
           transform="translate(-972.043,-1610.808)"
           fill="#ff0d58" />
      </g>
      <g
         id="Layer_3"
         data-name="Layer 3">
        <g
           id="Group_2"
           data-name="Group 2">
          <g
             id="Group_1"
             data-name="Group 1"
             clip-path="url(#clip-path)">
            <path
               id="Path_2"
               data-name="Path 2"
               d="m 1068.042,1809.487 18.819,18.819 h 32.839 v -29.883 l -11.92,-11.87 -39.734,22.934"
               transform="translate(-1056.122,-1764.731)"
               fill="#e00051" />
          </g>
        </g>
        <rect
           id="Rectangle_1"
           data-name="Rectangle 1"
           width="64"
           height="64"
           rx="32"
           fill="none"
           x="0"
           y="0" />
      </g>
      <g
         id="Layer_5"
         data-name="Layer 5">
        <rect
           id="Rectangle_2"
           data-name="Rectangle 2"
           width="64"
           height="64"
           fill="none"
           x="0"
           y="0" />
      </g>
      <g
         id="Layer_1"
         data-name="Layer 1"
         transform="translate(0,12.877)">
        <path
           id="Path_4"
           data-name="Path 4"
           d="m 1100.838,1726.808 c -9.5,0 -17.7,4.826 -17.785,4.875 v 12.783 c 0,0 0,5.76 0,5.76 v 0 7.022 c 0.082,0.048 8.236,4.828 17.65,4.874 l 0.136,0.631 17.785,-5.505 v -7.021 0 -18.544 c -0.081,-0.048 -8.314,-4.875 -17.786,-4.875 z"
           transform="translate(-1069.051,-1725.547)"
           fill="#b6fff6" />
        <path
           id="Path_5"
           data-name="Path 5"
           d="m 1228.852,1731.683 v 7.022 l -20.809,-2.438 2.522,-9.459 c 9.735,10e-4 18.202,4.828 18.287,4.875 z"
           transform="translate(-1178.958,-1725.547)"
           fill="#97f4ec" />
        <path
           id="Path_6"
           data-name="Path 6"
           d="m 1228.851,1912.489 v 7.021 l -18.285,5.505 -2.522,-11.351 c 0,0 20.679,-1.139 20.807,-1.175 z"
           transform="translate(-1178.958,-1887.809)"
           fill="#b6fff6" />
        <path
           id="Path_7"
           data-name="Path 7"
           d="m 1208.043,1856.809 2.522,9.459 a 74.237,74.237 0 0 0 18.285,-2.437 v -5.761 c -0.083,0 -20.807,-1.261 -20.807,-1.261 z"
           transform="translate(-1178.958,-1839.152)"
           fill="#97f4ec" />
        <path
           id="Path_8"
           data-name="Path 8"
           d="m 1228.852,1804.247 v 5.76 h -20.809 l 2.522,-8.2 a 74.289,74.289 0 0 1 18.287,2.44 z"
           transform="translate(-1178.958,-1791.088)"
           fill="#b6fff6" />
        <path
           id="Path_9"
           data-name="Path 9"
           d="m 1101.34,1914.917 v 9.459 c -9.738,0 -18.2,-4.827 -18.287,-4.875 v -7.022 z"
           transform="translate(-1069.355,-1887.801)"
           fill="#dafffb" />
        <path
           id="Path_10"
           data-name="Path 10"
           d="m 1101.348,1726.809 v 9.459 l -18.285,2.437 v -7.021 a 41.16,41.16 0 0 1 18.285,-4.875 z"
           transform="translate(-1069.363,-1725.547)"
           fill="#b6fff6" />
        <path
           id="Path_11"
           data-name="Path 11"
           d="m 1101.348,1801.809 v 8.2 l -9.143,2.522 -9.143,-2.522 v -5.761 a 74.234,74.234 0 0 1 18.286,-2.439 z"
           transform="translate(-1069.363,-1791.088)"
           fill="#dafffb" />
        <path
           id="Path_12"
           data-name="Path 12"
           d="m 1083.054,1866.809 c 0,0 0,5.76 0,5.76 a 74.311,74.311 0 0 0 18.287,2.438 v -8.2 z"
           transform="translate(-1069.355,-1847.891)"
           fill="#b6fff6" />
        <path
           id="Path_13"
           data-name="Path 13"
           d="m 1023.758,1745.841 -0.06,0.03 V 1725.6 l 0.06,0.029 c 2.463,1.223 7.148,3.5 11.861,3.833 v -2.9 c -4.158,-0.3 -8.318,-2.4 -10.607,-3.538 -0.532,-0.264 -0.957,-0.474 -1.313,-0.631 v -0.01 l -0.618,-0.365 a 38.131,38.131 0 0 0 -38.5,0 l -0.619,0.365 v 0.01 c -0.357,0.156 -0.781,0.367 -1.313,0.631 -2.289,1.136 -6.449,3.25 -10.607,3.545 v 2.894 c 4.712,-0.335 9.4,-2.61 11.86,-3.833 l 0.06,-0.029 v 20.268 l -0.06,-0.03 c -2.463,-1.222 -7.148,-3.5 -11.86,-3.832 v 2.894 c 4.158,0.3 8.318,2.409 10.606,3.545 0.576,0.286 1.027,0.509 1.4,0.669 l 0.531,0.313 a 38.128,38.128 0 0 0 38.5,0 l 0.531,-0.313 c 0.374,-0.16 0.825,-0.383 1.4,-0.669 2.288,-1.136 6.449,-3.25 10.607,-3.545 v -2.894 c -4.711,0.337 -9.396,2.612 -11.859,3.834 z m -2.544,1.745 a 35.57,35.57 0 0 1 -34.768,0 v -23.717 a 35.569,35.569 0 0 1 34.768,0 z"
           transform="translate(-972.043,-1716.808)"
           fill="#ffffff" />
      </g>
    </g>
  </g>
</svg>
